<?xml version="1.0" standalone="no"?>
<!DOCTYPE svg PUBLIC "-//W3C//DTD SVG 20010904//EN"
 "http://www.w3.org/TR/2001/REC-SVG-20010904/DTD/svg10.dtd">
<svg version="1.0" xmlns="http://www.w3.org/2000/svg"
 width="300.000000pt" height="129.000000pt" viewBox="0 0 300.000000 129.000000"
 preserveAspectRatio="xMidYMid meet">
<metadata>
Created by potrace 1.10, written by Peter Selinger 2001-2011
</metadata>
<g transform="translate(0.000000,129.000000) scale(0.100000,-0.100000)"
fill="#000000" stroke="none">
<path d="M728 929 c-22 -12 -24 -62 -3 -79 12 -10 15 -42 15 -169 l0 -156 -25
53 c-28 61 -32 108 -10 132 20 23 9 52 -19 48 -18 -3 -21 -8 -18 -48 l4 -45
-39 44 c-22 26 -37 53 -35 64 4 23 -25 57 -48 57 -21 0 -50 -31 -50 -53 0 -23
28 -47 55 -47 16 0 36 -15 61 -45 36 -45 41 -73 6 -42 -21 19 -46 8 -40 -19 3
-15 11 -18 39 -16 41 3 58 -12 82 -76 21 -52 21 -74 2 -47 -35 47 -79 85 -119
101 -25 10 -50 30 -59 46 -27 47 -87 27 -87 -28 0 -32 42 -54 70 -36 15 9 25
9 46 0 25 -12 25 -12 5 -20 -12 -4 -21 -14 -21 -23 0 -23 31 -31 45 -12 7 10
19 17 27 17 34 0 107 -113 108 -167 0 -20 5 -23 35 -23 27 0 35 4 35 18 0 71
62 158 142 198 39 20 53 23 64 13 22 -18 63 -2 70 27 7 28 -18 64 -46 64 -18
0 -50 -30 -50 -46 0 -6 -17 -16 -37 -24 -21 -8 -42 -17 -46 -19 -5 -2 -3 6 4
18 10 15 11 23 2 32 -17 17 -32 3 -31 -29 1 -18 -13 -46 -37 -77 -35 -45 -37
-47 -31 -20 23 98 117 235 161 235 55 0 72 62 23 89 -24 14 -28 14 -47 -3 -12
-11 -21 -31 -21 -46 0 -17 -12 -38 -36 -61 l-37 -34 6 47 c7 53 -11 81 -38 58
-8 -7 -15 -18 -15 -25 0 -7 7 -18 15 -25 22 -18 18 -77 -10 -145 l-25 -60 0
156 c0 127 3 159 15 169 22 18 18 57 -7 74 -26 19 -27 19 -50 5z m37 -489 c-4
-11 -11 -18 -16 -15 -11 7 -12 48 -2 59 11 11 25 -23 18 -44z"/>
<path d="M1198 755 c-3 -85 -1 -95 14 -95 14 0 16 6 12 30 -6 29 -6 30 33 30
54 0 83 23 83 65 0 44 -29 65 -92 65 l-47 0 -3 -95z m107 30 c0 -27 -4 -30
-37 -36 -45 -7 -48 -5 -48 38 0 34 0 34 43 31 39 -3 42 -5 42 -33z"/>
<path d="M1410 755 c0 -78 3 -95 15 -95 11 0 15 11 15 40 l0 40 50 0 50 0 0
-40 c0 -29 4 -40 15 -40 12 0 15 17 15 95 0 78 -3 95 -15 95 -11 0 -15 -11
-15 -40 l0 -40 -50 0 -50 0 0 40 c0 29 -4 40 -15 40 -12 0 -15 -17 -15 -95z"/>
<path d="M1660 755 l0 -95 60 0 c44 0 60 4 60 14 0 10 -11 12 -45 8 l-45 -5 0
87 c0 70 -3 86 -15 86 -12 0 -15 -17 -15 -95z"/>
<path d="M1865 827 c-18 -15 -28 -36 -32 -64 -5 -37 -2 -45 25 -73 63 -63 172
-22 172 65 0 81 -103 126 -165 72z m109 -18 c19 -15 26 -30 26 -54 0 -36 -36
-75 -70 -75 -10 0 -29 9 -44 21 -34 27 -35 71 -1 104 30 30 54 31 89 4z"/>
<path d="M2110 755 l0 -95 70 0 c50 0 70 4 70 13 0 9 -17 12 -57 12 -55 0 -57
1 -60 27 -2 26 1 27 49 30 74 4 77 28 4 28 -53 0 -56 1 -56 25 0 24 3 25 60
25 47 0 60 3 60 15 0 12 -14 15 -70 15 l-70 0 0 -95z"/>
<path d="M2320 755 c0 -78 3 -95 15 -95 12 0 15 15 16 73 l0 72 30 -62 c17
-35 35 -63 40 -63 5 0 22 27 39 60 17 33 32 60 34 60 2 0 1 -31 -2 -70 -4 -60
-2 -70 12 -70 14 0 16 14 16 95 0 84 -2 95 -17 95 -12 0 -28 -22 -49 -68 l-31
-67 -34 68 c-22 45 -39 67 -51 67 -16 0 -18 -10 -18 -95z"/>
<path d="M1225 520 c-27 -53 -31 -70 -15 -70 6 0 10 7 10 15 0 10 10 15 34 15
21 0 36 -6 40 -15 3 -8 10 -15 15 -15 5 0 -3 27 -17 60 -15 33 -30 60 -34 60
-4 0 -19 -22 -33 -50z m39 -18 c-22 -5 -27 3 -19 29 l7 22 14 -24 c11 -20 10
-25 -2 -27z"/>
<path d="M1380 510 c0 -38 4 -60 11 -60 8 0 10 15 7 45 -3 25 -5 45 -4 45 1 0
17 -20 36 -45 19 -25 37 -45 42 -45 4 0 8 27 8 60 0 68 -17 82 -22 18 l-3 -43
-29 43 c-16 23 -33 42 -37 42 -5 0 -9 -27 -9 -60z"/>
<path d="M1568 510 c-15 -33 -22 -60 -17 -60 5 0 12 7 15 15 4 9 19 15 40 15
24 0 34 -5 34 -15 0 -8 7 -15 14 -15 12 0 9 13 -12 60 -15 32 -31 59 -37 59
-5 0 -22 -27 -37 -59z m51 13 c11 -21 9 -23 -13 -23 -24 0 -25 2 -14 25 6 14
12 24 13 23 1 -2 8 -13 14 -25z"/>
<path d="M1730 510 l0 -60 40 0 c22 0 40 5 40 10 0 6 -13 10 -30 10 -29 0 -30
1 -30 50 0 28 -4 50 -10 50 -6 0 -10 -27 -10 -60z"/>
<path d="M1846 558 c4 -7 16 -25 26 -40 10 -14 18 -36 18 -47 0 -12 4 -21 10
-21 5 0 9 10 8 23 -1 13 8 40 21 60 12 20 18 37 12 37 -6 0 -18 -14 -27 -31
l-16 -31 -19 31 c-17 29 -49 47 -33 19z"/>
<path d="M2000 560 c0 -5 10 -10 21 -10 20 0 21 -4 17 -50 -3 -27 -1 -50 3
-50 5 0 9 23 9 50 0 43 3 50 20 50 11 0 20 5 20 10 0 6 -20 10 -45 10 -25 0
-45 -4 -45 -10z"/>
<path d="M2160 510 c0 -33 4 -60 10 -60 6 0 10 27 10 60 0 33 -4 60 -10 60 -6
0 -10 -27 -10 -60z"/>
<path d="M2267 552 c-38 -42 -6 -107 49 -100 15 2 29 8 31 15 3 8 -6 10 -30 6
-29 -4 -37 -1 -46 16 -19 35 3 64 45 59 21 -2 33 0 31 6 -6 20 -62 18 -80 -2z"/>
<path d="M2422 558 c-21 -21 -13 -38 23 -54 19 -8 35 -19 35 -25 0 -8 -12 -10
-35 -6 -41 7 -48 -9 -8 -19 30 -8 56 5 61 30 2 11 -8 21 -32 31 -44 19 -48 39
-6 33 19 -3 29 -1 27 6 -5 16 -50 19 -65 4z"/>
</g>
</svg>
